<svg aria-hidden="true" style="position: absolute; width: 0; height: 0; overflow: hidden;" version="1.1" xmlns="http://www.w3.org/2000/svg" xmlns:xlink="http://www.w3.org/1999/xlink">
<defs>
<symbol id="icon-Vector2" viewBox="0 0 43 32">
<path fill="#f4f4fd" style="fill: var(--color1, #f4f4fd)" d="M30.523 0.68c0.439-0.425 1.039-0.687 1.699-0.687 1.338 0 2.425 1.074 2.445 2.407l0 0.002c0.001 0.019 0.001 0.041 0.001 0.063 0 0.643-0.245 1.229-0.648 1.669l0.002-0.002-13.051 16.411c-0.45 0.485-1.090 0.788-1.802 0.788-0.33 0-0.645-0.065-0.932-0.183l0.016 0.006c-0.318-0.131-0.589-0.316-0.816-0.544l-0-0-8.656-8.701c-0.483-0.451-0.784-1.092-0.784-1.803 0-0.334 0.067-0.653 0.187-0.944l-0.006 0.016c0.376-0.912 1.258-1.542 2.287-1.542 0.012 0 0.023 0 0.035 0l-0.002-0c0.692 0.013 1.312 0.312 1.748 0.782l0.001 0.002 6.851 6.885 11.36-14.555c0.022-0.026 0.043-0.050 0.066-0.072l-0.002-0z"></path>
</symbol>
</defs>
</svg>
